<svg xmlns="http://www.w3.org/2000/svg" viewBox="0 0 253.36 57.88"><defs><style>.cls-1{fill:#fdfdfd;}.cls-2{fill:#331604;}.cls-3{fill:#331504;}.cls-4{fill:#fcfcfc;}.cls-5{fill:#625149;}.cls-17,.cls-6{fill:#331503;}.cls-7{fill:#341604;}.cls-8{fill:#361907;}.cls-9{fill:#341706;}.cls-10{fill:#351807;}.cls-11{fill:#341705;}.cls-12{fill:#361a09;}.cls-13{fill:#351806;}.cls-14{fill:#361908;}.cls-15{fill:#fefdfd;}.cls-16{fill:#fcfbfb;}.cls-17{font-size:6px;font-family:ArialMT, Arial;}</style></defs><title>Asset 1</title><g id="Layer_2" data-name="Layer 2"><g id="Layer_1-2" data-name="Layer 1"><path class="cls-1" d="M248,10.65V57.88H0V1.31H56.66v.11a17.84,17.84,0,0,0-5.18,1.67,14.22,14.22,0,0,0-7.34,7.3,16.06,16.06,0,0,0-.83,9,13.72,13.72,0,0,0,7.59,10.46,10,10,0,0,0,5.25,1.29c1.68-.1,3.37,0,5.06,0,.18,0,.36,0,.54,0V24.05H57.38a7.17,7.17,0,0,1-4.15-1.33,6.74,6.74,0,0,1-2.83-5.44A8.19,8.19,0,0,1,54,9.46a4.88,4.88,0,0,1,2.84-1.11c5.49,0,11,0,16.47,0a5,5,0,0,1,.94.07,2.23,2.23,0,0,1,1.8,2.48c-.12,1.14-.81,1.7-2.11,1.7H64c-.22,0-.43,0-.63,0v6.68H64c2.52,0,5,0,7.57,0a2.94,2.94,0,0,1,3.16,3.13v8.67h7c0-.07,0-.12,0-.17,0-3.48,0-7,0-10.44a3.08,3.08,0,0,0-2.2-3c-.34-.12-.7-.22-.9-.28a24.52,24.52,0,0,0,2.65-2.16,8.45,8.45,0,0,0,2-7.35A7.45,7.45,0,0,0,76.94,1.4a.29.29,0,0,0,0-.09H97.73s-.1.1-.16.11A14.85,14.85,0,0,0,86.72,8.14c-2.53,3.76-3,7.94-2,12.3,1.65,7.67,9.32,12.28,15.94,11.11a14.25,14.25,0,0,0,9-5.13c3.2-4,3.89-8.64,2.82-13.5C111.08,6.76,107,3.16,101,1.64c-.59-.15-1.2-.22-1.8-.33h35.95v.11c-.58.15-1.19.26-1.75.46-4.71,1.64-8,4.71-9.32,9.59a19.05,19.05,0,0,0-.15,9.1,13.08,13.08,0,0,0,5.87,8.77,11.05,11.05,0,0,0,6.46,1.93c1.84-.08,3.68,0,5.51,0h.62V23.5h-.72c-1.56,0-3.13.08-4.66-.09a5.81,5.81,0,0,1-5.22-4.08,10.65,10.65,0,0,1-.31-4.76,6.9,6.9,0,0,1,6.82-6.05h23.56V1.43l0-.12h2.56v.12c0,.09,0,.18,0,.28V31.16h7.8V8.47h4.67c.91,0,1.11.19,1.11,1.1,0,5,0,10,0,15a6.76,6.76,0,0,0,.23,1.79,10.41,10.41,0,0,0,1.93,4.12,1.84,1.84,0,0,0,1.53.72c1.92-.05,3.85,0,5.78,0H189a4.43,4.43,0,0,0-.38-.62,9.38,9.38,0,0,1-2.75-6.85q0-6.85,0-13.72a11.47,11.47,0,0,0-1.11-5,6.28,6.28,0,0,0-4.21-3.55V1.31h7.23l0,.12v7h17.45V1.31h1.56V8.43H239a2,2,0,0,1,2,2.17,2.11,2.11,0,0,1-2.11,2.05h-11v6.87h8.55a2.87,2.87,0,0,1,2.84,2.86v8.78h7.09c0-.06.06-.09.06-.12,0-3.39,0-6.78,0-10.17a3.21,3.21,0,0,0-2.51-3.25l-1.16-.37.41-.19.4-.2a8,8,0,0,0,4.07-4.62C247.78,11.72,247.87,11.18,248,10.65ZM8.55,8.42H21a1.21,1.21,0,0,1,1.22.87,4.5,4.5,0,0,1,.23,1.3q0,10,0,19.94v.57H30.1v-.69c0-7.52,0-15,0-22.55a7.62,7.62,0,0,0-.34-2.17,5.22,5.22,0,0,0-5.21-3.83H1.26V31.1H8.55ZM225.48,19.65v-7H206.83V22.1c0,1.08-.09,1.18-1.15,1.18-2.51,0-5-.05-7.51,0a1.65,1.65,0,0,1-1.89-1.45,3.59,3.59,0,0,1-.14-1.09c0-2.5,0-5,0-7.5v-.56h-7.57c0,3.62,0,7.2,0,10.77A7.7,7.7,0,0,0,189.9,28a6.68,6.68,0,0,0,5.8,3.21q14.56,0,29.15,0h.64V24H215V19.65Zm-81.41-6.51v18h17.72V23.64h-9.95v-4h9.95V13.14Zm-102.94,18V1.91H33v29.2ZM11.69,12.7V31.11h7.08V12.7ZM37.5,51.16c-1.2-.15-1.62-.47-1.64-1.45,0-1.83,0-3.66,0-5.62A22.94,22.94,0,0,1,38.25,43c1.23-.43,2.07,0,2.17,1.32a51.19,51.19,0,0,1,0,5.54,1.17,1.17,0,0,1-1.14,1.27l-.42.06v.68H44.6v-.57c-.48-.21-1-.29-1.23-.59A2.5,2.5,0,0,1,43,49.35c0-1.59,0-3.19,0-4.78A6.51,6.51,0,0,0,42.71,43a2.16,2.16,0,0,0-2.34-1.65,6.09,6.09,0,0,0-2,.5c-.93.42-1.81,1-2.73,1.47,0-.12-.07-.24-.12-.36a2.19,2.19,0,0,0-2.4-1.62,6,6,0,0,0-2.76.92c-.56.3-1.1.64-1.71,1v-2a20.71,20.71,0,0,0-4.14,1.14l0,.69.4.09c1.05.17,1.2.34,1.2,1.4v4.73c0,1.28-.31,1.64-1.58,1.82v.66h5.74v-.67l-.4,0c-.75-.07-1.2-.45-1.21-1.19,0-1.9,0-3.8,0-5.84A21,21,0,0,1,31.11,43c1.28-.44,2.11.11,2.17,1.44.09,1.76.07,3.52.06,5.28a1.31,1.31,0,0,1-.64,1.27,4.91,4.91,0,0,1-1,.25v.64H37.5ZM44.91,57v.66h6.67V57c-.34,0-.63,0-.93,0-.86-.07-1.29-.4-1.32-1.19,0-1.36,0-2.72,0-4.09a11.46,11.46,0,0,0,1.29.27A6,6,0,0,0,57,44.48c-.54-2-2-3.21-3.92-3a9.62,9.62,0,0,0-2.48.86,12,12,0,0,0-1.29.7V40.9c-1.51.15-2.67,1.07-4,1.5v.68l1.43.4c0,.41.07.72.07,1V54.73c0,.32,0,.63-.06.94A1.31,1.31,0,0,1,45.46,57,5,5,0,0,1,44.91,57ZM211.48,41.28a25.67,25.67,0,0,0-4.09,1.14v.7l.49.09c1,.18,1.16.4,1.16,1.4q0,2.39,0,4.77c0,1.31-.48,1.73-1.55,1.76,0,0-.06,0-.07,0v.63h5.79v-.66c-1.36-.17-1.61-.36-1.67-1.69-.07-1.7,0-3.4,0-5.22A23,23,0,0,1,213.84,43a1.61,1.61,0,0,1,2.42,1.5,42,42,0,0,1,0,4.76c-.08,1.38-.46,1.69-1.76,1.86,0,0-.05,0-.08.07v.61h6.16v-.67l-.41,0c-1.08-.07-1.54-.59-1.48-1.69,0-.2,0-.4,0-.6,0-1.68.12-3.37,0-5a2.42,2.42,0,0,0-3-2.42,8.55,8.55,0,0,0-2.05.8c-.72.35-1.39.8-2.15,1.24Zm-144,11,4.17-1.1v-.66L70,50.56c-.19-3.15,0-6.19-.11-9.32l-4.54.67v.66c.5.1,1,.19,1.43.3a.83.83,0,0,1,.68.89c0,1.83,0,3.66,0,5.57a18.7,18.7,0,0,1-2,1,1.73,1.73,0,0,1-2.52-1.47,31.65,31.65,0,0,1-.11-3.65c0-1.29,0-2.58,0-4l-4,.83v.64c1.53.38,1.53.38,1.53,2s0,3.07,0,4.61A2.64,2.64,0,0,0,63.88,52a19.7,19.7,0,0,0,3-1.39c.18-.09.35-.21.6-.36Zm53.7-9.1A14.15,14.15,0,0,0,123,41.5a1.9,1.9,0,0,0-.69-3,3.73,3.73,0,0,0-3-.24,2.4,2.4,0,0,0-1.66,3.3,14.5,14.5,0,0,0,1.17,2A24.12,24.12,0,0,0,116.56,45a3.54,3.54,0,0,0-.81,4.84,3.79,3.79,0,0,0,4.81,1.29,9.87,9.87,0,0,0,3.29-2.33c.71,1,1,2.36,2.38,2.63a4,4,0,0,0,3.38-1.11l-.2-.42c-.18.12-.33.22-.49.31-1.26.75-1.88.6-2.65-.65-.41-.67-.8-1.36-1.17-2,.82-1.21,1.69-2.36,2.41-3.6.62-1.08,1.29-1.91,2.69-1.62v-.51h-3.58l-.36,0v.39l1.17.23c0,.83-1.22,2.8-2.61,4.44Zm79.09-1.82c-3.45,0-5.56,1.79-5.83,5a5.11,5.11,0,0,0,3.76,5.55,7.57,7.57,0,0,0,3.35.17,5.35,5.35,0,0,0,4.26-7.22A5.53,5.53,0,0,0,200.26,41.32Zm-182.92,0c-3.1,0-5.53,1.66-5.81,4.64a5.17,5.17,0,0,0,1.94,5,6.53,6.53,0,0,0,5.27,1,5.34,5.34,0,0,0,3.74-8A5.56,5.56,0,0,0,17.34,41.32Zm127.75,8-.53-.47c-1.63,1.7-3.07,2.16-4.61,1.49A4.44,4.44,0,0,1,137.66,46h7.5v-.76a3.12,3.12,0,0,1-.66-1.17,3.39,3.39,0,0,0-2.08-2.36,5.24,5.24,0,0,0-4.25.11,5.65,5.65,0,0,0-3,5.92A4.85,4.85,0,0,0,137,51.26a5.06,5.06,0,0,0,3.48.84A5.78,5.78,0,0,0,145.09,49.28ZM91,45.25l-.12.06A11,11,0,0,1,90.29,44a3.42,3.42,0,0,0-2-2.27A5.3,5.3,0,0,0,82.41,43a6.38,6.38,0,0,0-.85,6.7,3.82,3.82,0,0,0,3,2.3,8.94,8.94,0,0,0,2.53,0,5.44,5.44,0,0,0,3.78-2.68l-.47-.45C88.1,50.68,87,51,85.52,50.15a4.37,4.37,0,0,1-2-4.18H91Zm72.91,0h-.12a7,7,0,0,1-.52-1.11,3.58,3.58,0,0,0-1.77-2.3A5.22,5.22,0,0,0,154.61,44a6.46,6.46,0,0,0-.63,3.92,4.3,4.3,0,0,0,2.6,3.78,5.89,5.89,0,0,0,7.26-2.45l-.47-.51c-1.42,1.54-3,2.45-5,1.32a4.37,4.37,0,0,1-1.9-4.12h7.49Zm-17.65-8.75.81.14c.9.12,1.16.4,1.16,1.29,0,1.37,0,2.74,0,4.11q0,3.66,0,7.33c0,1.22-.43,1.66-1.64,1.74l-.31.06v.65h6.31v-.68l-.41,0c-1-.06-1.31-.34-1.46-1.31a4,4,0,0,1,0-.6q0-6.91,0-13.83v-.76l-4.42,1.23Zm42.47,7.25v-2.6l-4.14,1.27,0,.58,1.68.65c0,1.88,0,3.73,0,5.58,0,1.39-.34,1.82-1.67,1.92v.67h6.64v-.72c-.4,0-.77,0-1.14,0-.82,0-1.23-.34-1.28-1.14-.09-1.4,0-2.81-.11-4.21a2.61,2.61,0,0,1,.79-1.93,1.06,1.06,0,0,1,1.34-.29c.55.25,1.13.42,1.73.64l.86-2.17c-.67-.2-1.29-.36-1.89-.57a1.15,1.15,0,0,0-1.44.36C189.69,42.4,189.26,43,188.76,43.76ZM98.93,51.1c-.44,0-.82,0-1.21,0-.8-.06-1.18-.35-1.23-1.15-.08-1.45,0-2.92-.1-4.37a2.47,2.47,0,0,1,1-1.95.93.93,0,0,1,1.07-.11c.57.24,1.17.43,1.78.65l.87-2.18a15.83,15.83,0,0,1-1.63-.47c-1.09-.46-1.51-.07-2.07.68-.36.48-.64,1-1,1.63V41.16l-4.14,1.27,0,.58,1.69.65c0,1.89,0,3.74,0,5.59,0,1.5-.42,1.81-1.67,1.91v.67h6.66Zm81.6-9.53V38.79h-.68a5.86,5.86,0,0,1-3,3.68V43L178,43v1.72c0,1.57,0,3.15.1,4.71a2.61,2.61,0,0,0,2.41,2.66,3.28,3.28,0,0,0,3.64-2.18l-.54-.42-.46.64a1.38,1.38,0,0,1-1.39.61,1.34,1.34,0,0,1-1.09-1.07,4.93,4.93,0,0,1-.14-1.09c0-1.72,0-3.44,0-5.17a4,4,0,0,1,0-.44h3.05l.58-1.41Zm57.11,7.36a15.69,15.69,0,0,1-1.49,1.27,2.92,2.92,0,0,1-4.66-1.46,6,6,0,0,1-.36-1.49,5.63,5.63,0,0,1,.89-4.07,1.89,1.89,0,0,1,3.14-.25,7.44,7.44,0,0,0,1.18,1,1.22,1.22,0,0,0,1.68-.31,1.18,1.18,0,0,0-.41-1.6,2.37,2.37,0,0,0-.93-.45,10.93,10.93,0,0,0-2-.24c-3.33,0-6.49,2.14-6.18,6.33a4.61,4.61,0,0,0,1.65,3.43c2.27,1.85,6,1.2,7.92-1.76Zm-62.58,0a16.76,16.76,0,0,1-2,1.49,2.73,2.73,0,0,1-4-1.33,7.16,7.16,0,0,1-.58-2.28,5.16,5.16,0,0,1,1-3.8,1.85,1.85,0,0,1,3-.19c.24.23.46.48.72.69a3.09,3.09,0,0,0,.8.48,1.2,1.2,0,0,0,1.43-.41,1.12,1.12,0,0,0-.28-1.45,2.77,2.77,0,0,0-1.1-.6,10.05,10.05,0,0,0-2.25-.23c-3.38.12-6.05,2.37-5.92,6.12A4.6,4.6,0,0,0,169.5,52a5.79,5.79,0,0,0,6-2.67ZM9.2,48.91c-.37.34-.7.69-1.07,1-1.72,1.46-3.91,1.19-4.84-.68a5.92,5.92,0,0,1,0-5.63c.89-1.68,2.23-1.83,3.58-.51a5.7,5.7,0,0,0,1.17.9,1.16,1.16,0,0,0,1.49-.33,1.13,1.13,0,0,0-.27-1.53,3,3,0,0,0-1.06-.57,7,7,0,0,0-5.6.76A5.49,5.49,0,0,0,.18,48.23a4.28,4.28,0,0,0,2.49,3.43,5.65,5.65,0,0,0,7-2.32ZM73.76,43v.59c0,1.75,0,3.51,0,5.27,0,1.3.34,2.47,1.69,3a3.33,3.33,0,0,0,4.44-2l-.57-.43-.24.36a1.52,1.52,0,0,1-1.58.9,1.33,1.33,0,0,1-1.15-1.37c0-2.12,0-4.23,0-6.38h3l.6-1.45H76.24V38.79h-.7a5.6,5.6,0,0,1-3,3.67l.06.54Zm172.37-1.32a6.71,6.71,0,0,0-3.66-.19c-2.29.64-3.18,3.12-1.23,4.86.73.66,1.54,1.21,2.28,1.86a5.29,5.29,0,0,1,1.1,1.22,1.28,1.28,0,0,1-1.07,1.9,2.28,2.28,0,0,1-2.33-1.27,9.75,9.75,0,0,1-.5-1.15h-.61c.06.57.13,1.09.18,1.62s.11,1,.15,1.46a26.47,26.47,0,0,0,3.18.08,4.46,4.46,0,0,0,2-.68c1.68-1.12,1.7-3.23.09-4.68-.67-.6-1.47-1.07-2.17-1.64a5.11,5.11,0,0,1-1.17-1.15,1.13,1.13,0,0,1,.94-1.73,1.67,1.67,0,0,1,1.67.88,9.15,9.15,0,0,1,.55,1.32s.06.08.09.14l.51,0Zm-137.85,0a6.61,6.61,0,0,0-3.55-.24,3,3,0,0,0-2.35,2.1,2.59,2.59,0,0,0,1,2.77c.7.62,1.48,1.17,2.18,1.79a5.82,5.82,0,0,1,1.2,1.28,1.29,1.29,0,0,1-1.06,2,2.21,2.21,0,0,1-2.17-1.06,12.16,12.16,0,0,1-.69-1.4l-.56,0,.34,3.26,1-.23a12.8,12.8,0,0,0,2.9,0A2.89,2.89,0,0,0,109,48.79a3.25,3.25,0,0,0-1.39-2.31c-.91-.72-1.88-1.37-2.77-2.12a1.19,1.19,0,0,1-.38-1.54,1.29,1.29,0,0,1,1.53-.59,2.11,2.11,0,0,1,1,.7,10.47,10.47,0,0,1,.79,1.57h.52Zm117.17-.8L221,42.11l0,.58c.68.21,1.45.08,2,.68,0,2.14,0,4.25,0,6.36a1.3,1.3,0,0,1-1.35,1.38l-.63,0,0,.68h6.25v-.67c-1.75-.09-1.73-.68-1.8-2a2.62,2.62,0,0,1,0-.28v-8ZM224,38.1c.93,0,1.58-.47,1.64-1.21s-.41-1.4-1.43-1.53a1.54,1.54,0,0,0-1.8,1.3C222.35,37.51,223,38.1,224,38.1Z"/><path class="cls-2" d="M99.18,1.31c.6.11,1.21.18,1.8.33,6,1.52,10.1,5.12,11.46,11.28,1.07,4.86.38,9.5-2.82,13.5a14.25,14.25,0,0,1-9,5.13C94,32.72,86.35,28.11,84.7,20.44c-.93-4.36-.51-8.54,2-12.3A14.85,14.85,0,0,1,97.57,1.42c.06,0,.11-.07.16-.11ZM92.59,16a10.66,10.66,0,0,0,1,5.09,5.74,5.74,0,0,0,4.67,3.4,4.83,4.83,0,0,0,4.91-2.67,11,11,0,0,0,.42-10.15,5.19,5.19,0,0,0-5.32-3.35,5.43,5.43,0,0,0-5,3.66A9.84,9.84,0,0,0,92.59,16Z"/><path class="cls-3" d="M248,10.65c-.13.53-.22,1.07-.39,1.59a8,8,0,0,1-4.07,4.62l-.4.2-.41.19,1.16.37a3.21,3.21,0,0,1,2.51,3.25c.07,3.39,0,6.78,0,10.17,0,0,0,.06-.06.12h-7.09V22.38a2.87,2.87,0,0,0-2.84-2.86h-8.55V12.65h11A2.11,2.11,0,0,0,241,10.6a2,2,0,0,0-2-2.17H206.83v-7h33.58a4.13,4.13,0,0,0,.69-.11h.11a1.06,1.06,0,0,0,.21.11,7.86,7.86,0,0,1,6.3,5.87c.11.41.19.83.28,1.25Z"/><path class="cls-4" d="M248,8.54c-.09-.42-.17-.84-.28-1.25a7.86,7.86,0,0,0-6.3-5.87,1.06,1.06,0,0,1-.21-.11H248Z"/><path class="cls-5" d="M241.1,1.31a4.13,4.13,0,0,1-.69.11H206.83V1.31Z"/><path class="cls-5" d="M135.12,1.42V1.31h26.72l0,.12H135.12Z"/><path class="cls-5" d="M76.92,1.31a.29.29,0,0,1,0,.09l-.16,0H56.65V1.31Z"/><path class="cls-5" d="M205.26,1.31v.11H187.81l0-.12Z"/><path class="cls-5" d="M164.42,1.43V1.31h16.14v.11Z"/><path class="cls-3" d="M56.65,1.42H76.78l.16,0a7.45,7.45,0,0,1,6.44,6.32,8.45,8.45,0,0,1-2,7.35,24.52,24.52,0,0,1-2.65,2.16c.2.06.56.16.9.28a3.08,3.08,0,0,1,2.2,3c0,3.48,0,7,0,10.44,0,.05,0,.1,0,.17h-7V22.45a2.94,2.94,0,0,0-3.16-3.13c-2.52,0-5,0-7.57,0h-.64V12.64c.2,0,.41,0,.63,0H74c1.3,0,2-.56,2.11-1.7a2.23,2.23,0,0,0-1.8-2.48,5,5,0,0,0-.94-.07c-5.49,0-11,0-16.47,0A4.88,4.88,0,0,0,54,9.46a8.19,8.19,0,0,0-3.64,7.82,6.74,6.74,0,0,0,2.83,5.44,7.17,7.17,0,0,0,4.15,1.33h4.36v7.06c-.18,0-.36,0-.54,0-1.69,0-3.38-.08-5.06,0a10,10,0,0,1-5.25-1.29A13.72,13.72,0,0,1,43.3,19.41a16.06,16.06,0,0,1,.83-9,14.22,14.22,0,0,1,7.34-7.3A17.84,17.84,0,0,1,56.65,1.42Z"/><path class="cls-6" d="M8.55,8.42V31.1H1.26V1.87H24.53A5.22,5.22,0,0,1,29.74,5.7a7.62,7.62,0,0,1,.34,2.17c0,7.52,0,15,0,22.55v.69H22.48v-.57q0-10,0-19.94a4.5,4.5,0,0,0-.23-1.3A1.21,1.21,0,0,0,21,8.43Z"/><path class="cls-2" d="M225.48,19.65H215V24h10.53v7.21h-.64q-14.58,0-29.15,0A6.68,6.68,0,0,1,189.9,28a7.7,7.7,0,0,1-1.36-4.52c.06-3.57,0-7.15,0-10.77h7.57v.56c0,2.5,0,5,0,7.5a3.59,3.59,0,0,0,.14,1.09,1.65,1.65,0,0,0,1.89,1.45c2.5-.06,5,0,7.51,0,1.06,0,1.15-.1,1.15-1.18V12.69h18.65Z"/><path class="cls-6" d="M164.42,1.43h16.14A6.28,6.28,0,0,1,184.77,5a11.47,11.47,0,0,1,1.11,5q0,6.86,0,13.72a9.38,9.38,0,0,0,2.75,6.85,4.43,4.43,0,0,1,.38.62h-1.54c-1.93,0-3.86,0-5.78,0a1.84,1.84,0,0,1-1.53-.72,10.41,10.41,0,0,1-1.93-4.12,6.76,6.76,0,0,1-.23-1.79c0-5,0-10,0-15,0-.91-.2-1.1-1.11-1.1h-4.67V31.16h-7.8V1.71C164.41,1.61,164.42,1.52,164.42,1.43Z"/><path class="cls-2" d="M135.12,1.42h26.71V8.52H138.27a6.9,6.9,0,0,0-6.82,6.05,10.65,10.65,0,0,0,.31,4.76A5.81,5.81,0,0,0,137,23.41c1.53.17,3.1.07,4.66.09h.72v7.75h-.62c-1.83,0-3.67-.06-5.51,0a11.05,11.05,0,0,1-6.46-1.93,13.08,13.08,0,0,1-5.87-8.77,19.05,19.05,0,0,1,.15-9.1c1.36-4.88,4.61-8,9.32-9.59C133.93,1.68,134.54,1.57,135.12,1.42Z"/><path class="cls-7" d="M144.07,13.14h17.72V19.6h-9.95v4h9.95V31.1H144.07Z"/><path class="cls-2" d="M41.13,31.11H33V1.91h8.11Z"/><path class="cls-2" d="M11.69,12.7h7.08V31.11H11.69Z"/><path class="cls-6" d="M187.81,1.43h17.45v7H187.81Z"/><path class="cls-8" d="M37.5,51.16v.67H31.75v-.64a4.91,4.91,0,0,0,1-.25,1.31,1.31,0,0,0,.64-1.27c0-1.76,0-3.52-.06-5.28-.06-1.33-.89-1.88-2.17-1.44a21,21,0,0,0-2.39,1.13c0,2,0,3.94,0,5.84,0,.74.46,1.12,1.21,1.19l.4,0v.67H24.6v-.66c1.27-.18,1.57-.54,1.58-1.82V44.61c0-1.06-.15-1.23-1.2-1.4l-.4-.09,0-.69a20.71,20.71,0,0,1,4.14-1.14v2c.61-.37,1.15-.71,1.71-1a6,6,0,0,1,2.76-.92A2.19,2.19,0,0,1,35.56,43c0,.12.08.24.12.36.92-.51,1.8-1.05,2.73-1.47a6.09,6.09,0,0,1,2-.5A2.16,2.16,0,0,1,42.71,43,6.51,6.51,0,0,1,43,44.57c0,1.59,0,3.19,0,4.78a2.5,2.5,0,0,0,.39,1.33c.24.3.75.38,1.23.59v.57H38.89v-.68l.42-.06a1.17,1.17,0,0,0,1.14-1.27,51.19,51.19,0,0,0,0-5.54c-.1-1.28-.94-1.75-2.17-1.32a22.94,22.94,0,0,0-2.41,1.12c0,2,0,3.79,0,5.62C35.88,50.69,36.3,51,37.5,51.16Z"/><path class="cls-9" d="M44.91,57a5,5,0,0,0,.55,0,1.31,1.31,0,0,0,1.3-1.32c0-.31.06-.62.06-.94V44.51c0-.31,0-.62-.07-1l-1.43-.4V42.4c1.3-.43,2.46-1.35,4-1.5V43a12,12,0,0,1,1.29-.7,9.62,9.62,0,0,1,2.48-.86c1.93-.2,3.38,1,3.92,3A6,6,0,0,1,50.61,52a11.46,11.46,0,0,1-1.29-.27c0,1.37,0,2.73,0,4.09,0,.79.46,1.12,1.32,1.19.3,0,.59,0,.93,0v.66H44.91Zm4.41-7.33a13.6,13.6,0,0,0,1.4.93,2.48,2.48,0,0,0,3.59-1.26,5.2,5.2,0,0,0-.5-5.15A2.39,2.39,0,0,0,51.25,43a13.55,13.55,0,0,0-1.93.75Z"/><path class="cls-10" d="M211.48,41.28V43.4c.76-.44,1.43-.89,2.15-1.24a8.55,8.55,0,0,1,2.05-.8,2.42,2.42,0,0,1,3,2.42c.13,1.67,0,3.36,0,5,0,.2,0,.4,0,.6-.06,1.1.4,1.62,1.48,1.69l.41,0v.67h-6.16v-.61s.05-.06.08-.07c1.3-.17,1.68-.48,1.76-1.86a42,42,0,0,0,0-4.76,1.61,1.61,0,0,0-2.42-1.5,23,23,0,0,0-2.32,1.23c0,1.82-.05,3.52,0,5.22.06,1.33.31,1.52,1.67,1.69v.66h-5.79v-.63s0,0,.07,0c1.07,0,1.55-.45,1.55-1.76q0-2.39,0-4.77c0-1-.18-1.22-1.16-1.4l-.49-.09v-.7A25.67,25.67,0,0,1,211.48,41.28Z"/><path class="cls-11" d="M67.47,52.24v-2c-.25.15-.42.27-.6.36a19.7,19.7,0,0,1-3,1.39,2.64,2.64,0,0,1-3.54-2.71c0-1.54,0-3.08,0-4.61s0-1.61-1.53-2V42l4-.83c0,1.45,0,2.74,0,4a31.65,31.65,0,0,0,.11,3.65,1.73,1.73,0,0,0,2.52,1.47,18.7,18.7,0,0,0,2-1c0-1.91,0-3.74,0-5.57a.83.83,0,0,0-.68-.89c-.46-.11-.93-.2-1.43-.3v-.66l4.54-.67c.09,3.13-.08,6.17.11,9.32l1.65-.08v.66Z"/><path class="cls-12" d="M121.17,43.14l3.65,3.73c1.39-1.64,2.59-3.61,2.61-4.44l-1.17-.23v-.39l.36,0h3.58v.51c-1.4-.29-2.07.54-2.69,1.62-.72,1.24-1.59,2.39-2.41,3.6.37.65.76,1.34,1.17,2,.77,1.25,1.39,1.4,2.65.65.16-.09.31-.19.49-.31l.2.42a4,4,0,0,1-3.38,1.11c-1.38-.27-1.67-1.65-2.38-2.63a9.87,9.87,0,0,1-3.29,2.33,3.79,3.79,0,0,1-4.81-1.29,3.54,3.54,0,0,1,.81-4.84,24.12,24.12,0,0,1,2.27-1.35,14.5,14.5,0,0,1-1.17-2,2.4,2.4,0,0,1,1.66-3.3,3.73,3.73,0,0,1,3,.24,1.9,1.9,0,0,1,.69,3A14.15,14.15,0,0,1,121.17,43.14Zm-1.84.81-1.11,1a3.43,3.43,0,0,0-1.13,3,2.45,2.45,0,0,0,2.13,2.27,5.24,5.24,0,0,0,4.37-1.9A13.12,13.12,0,0,0,119.33,44Zm1.2-1.14a2.51,2.51,0,0,0,1.25-3.26,1.54,1.54,0,0,0-1.73-.89A1.38,1.38,0,0,0,119,40.07,3.3,3.3,0,0,0,120.53,42.81Z"/><path class="cls-10" d="M200.26,41.32a5.53,5.53,0,0,1,5.54,3.46A5.35,5.35,0,0,1,201.54,52a7.57,7.57,0,0,1-3.35-.17,5.11,5.11,0,0,1-3.76-5.55C194.7,43.11,196.81,41.32,200.26,41.32Zm3.29,6.19A6.67,6.67,0,0,0,202,43.26a2.64,2.64,0,0,0-4.7,1,5.11,5.11,0,0,0-.25,1.35,6.31,6.31,0,0,0,1.43,4.62,2.76,2.76,0,0,0,2.73,1,2.56,2.56,0,0,0,2-2C203.4,48.64,203.45,48.07,203.55,47.51Z"/><path class="cls-13" d="M17.34,41.32A5.56,5.56,0,0,1,22.48,44a5.34,5.34,0,0,1-3.74,8,6.53,6.53,0,0,1-5.27-1,5.17,5.17,0,0,1-1.94-5C11.81,43,14.24,41.27,17.34,41.32Zm-3.23,4.44c.11,1.86.44,3.45,1.73,4.66a2.59,2.59,0,0,0,4.42-1.09,6.26,6.26,0,0,0-1-5.91,2.72,2.72,0,0,0-2.81-1.18,2.69,2.69,0,0,0-2.1,2.18C14.23,44.91,14.17,45.43,14.11,45.76Z"/><path class="cls-14" d="M145.09,49.28a5.78,5.78,0,0,1-4.61,2.82,5.06,5.06,0,0,1-3.48-.84,4.85,4.85,0,0,1-1.82-3.54,5.65,5.65,0,0,1,3-5.92,5.24,5.24,0,0,1,4.25-.11,3.39,3.39,0,0,1,2.08,2.36,3.12,3.12,0,0,0,.66,1.17V46h-7.5A4.44,4.44,0,0,0,140,50.3c1.54.67,3,.21,4.61-1.49Zm-7.43-4.1h4.53c-.2-2.12-.93-3.11-2.25-3.1S137.8,43.26,137.66,45.18Z"/><path class="cls-8" d="M91,45.25V46h-7.5a4.37,4.37,0,0,0,2,4.18c1.49.82,2.58.53,4.92-1.32l.47.45A5.44,5.44,0,0,1,87.13,52a8.94,8.94,0,0,1-2.53,0,3.82,3.82,0,0,1-3-2.3,6.38,6.38,0,0,1,.85-6.7,5.3,5.3,0,0,1,5.85-1.3,3.42,3.42,0,0,1,2,2.27,11,11,0,0,0,.62,1.36Zm-3-.06a4.94,4.94,0,0,0-.75-2.35,1.85,1.85,0,0,0-2.77-.29,4.05,4.05,0,0,0-1.07,2.64Z"/><path class="cls-8" d="M163.94,45.26V46h-7.49a4.37,4.37,0,0,0,1.9,4.12c2,1.13,3.6.22,5-1.32l.47.51a5.89,5.89,0,0,1-7.26,2.45,4.3,4.3,0,0,1-2.6-3.78,6.46,6.46,0,0,1,.63-3.92,5.22,5.22,0,0,1,6.92-2.17,3.58,3.58,0,0,1,1.77,2.3,7,7,0,0,0,.52,1.11Zm-7.71-.07h4.88a14.43,14.43,0,0,0-.79-2.22,1.82,1.82,0,0,0-3.1-.11A13.49,13.49,0,0,0,156.23,45.19Z"/><path class="cls-11" d="M146.29,36.51v-.67l4.42-1.23v.76q0,6.91,0,13.83a4,4,0,0,0,0,.6c.15,1,.47,1.25,1.46,1.31l.41,0v.68h-6.31v-.65l.31-.06c1.21-.08,1.64-.52,1.64-1.74q0-3.68,0-7.33c0-1.37,0-2.74,0-4.11,0-.89-.26-1.17-1.16-1.29Z"/><path class="cls-10" d="M188.76,43.76c.5-.72.93-1.36,1.4-2a1.15,1.15,0,0,1,1.44-.36c.6.21,1.22.37,1.89.57l-.86,2.17c-.6-.22-1.18-.39-1.73-.64a1.06,1.06,0,0,0-1.34.29,2.61,2.61,0,0,0-.79,1.93c.07,1.4,0,2.81.11,4.21.05.8.46,1.1,1.28,1.14.37,0,.74,0,1.14,0v.72h-6.64v-.67c1.33-.1,1.65-.53,1.67-1.92,0-1.85,0-3.7,0-5.58L184.65,43l0-.58,4.14-1.27Z"/><path class="cls-10" d="M98.93,51.1v.73H92.27v-.67c1.25-.1,1.65-.41,1.67-1.91,0-1.85,0-3.7,0-5.59L92.26,43l0-.58,4.14-1.27v2.67c.4-.63.68-1.15,1-1.63.56-.75,1-1.14,2.07-.68a15.83,15.83,0,0,0,1.63.47l-.87,2.18c-.61-.22-1.21-.41-1.78-.65a.93.93,0,0,0-1.07.11,2.47,2.47,0,0,0-1,1.95c0,1.45,0,2.92.1,4.37.05.8.43,1.09,1.23,1.15C98.11,51.13,98.49,51.1,98.93,51.1Z"/><path class="cls-12" d="M180.53,41.57h3.67L183.62,43h-3.05a4,4,0,0,0,0,.44c0,1.73,0,3.45,0,5.17a4.93,4.93,0,0,0,.14,1.09,1.34,1.34,0,0,0,1.09,1.07,1.38,1.38,0,0,0,1.39-.61l.46-.64.54.42a3.28,3.28,0,0,1-3.64,2.18,2.61,2.61,0,0,1-2.41-2.66c-.1-1.56-.07-3.14-.1-4.71V43l-1.11,0v-.49a5.86,5.86,0,0,0,3-3.68h.68Z"/><path class="cls-10" d="M237.64,48.93l.46.4c-1.9,3-5.65,3.61-7.92,1.76a4.61,4.61,0,0,1-1.65-3.43c-.31-4.19,2.85-6.36,6.18-6.33a10.93,10.93,0,0,1,2,.24,2.37,2.37,0,0,1,.93.45,1.18,1.18,0,0,1,.41,1.6,1.22,1.22,0,0,1-1.68.31,7.44,7.44,0,0,1-1.18-1,1.89,1.89,0,0,0-3.14.25,5.63,5.63,0,0,0-.89,4.07,6,6,0,0,0,.36,1.49,2.92,2.92,0,0,0,4.66,1.46A15.69,15.69,0,0,0,237.64,48.93Z"/><path class="cls-10" d="M175.06,49l.41.36a5.79,5.79,0,0,1-6,2.67,4.6,4.6,0,0,1-3.65-4.54c-.13-3.75,2.54-6,5.92-6.12a10.05,10.05,0,0,1,2.25.23,2.77,2.77,0,0,1,1.1.6,1.12,1.12,0,0,1,.28,1.45A1.2,1.2,0,0,1,174,44a3.09,3.09,0,0,1-.8-.48c-.26-.21-.48-.46-.72-.69a1.85,1.85,0,0,0-3,.19,5.16,5.16,0,0,0-1,3.8,7.16,7.16,0,0,0,.58,2.28,2.73,2.73,0,0,0,4,1.33A16.76,16.76,0,0,0,175.06,49Z"/><path class="cls-8" d="M9.2,48.91l.48.43a5.65,5.65,0,0,1-7,2.32A4.28,4.28,0,0,1,.18,48.23a5.49,5.49,0,0,1,2.47-5.91,7,7,0,0,1,5.6-.76,3,3,0,0,1,1.06.57,1.13,1.13,0,0,1,.27,1.53A1.16,1.16,0,0,1,8.09,44a5.7,5.7,0,0,1-1.17-.9c-1.35-1.32-2.69-1.17-3.58.51a5.92,5.92,0,0,0,0,5.63c.93,1.87,3.12,2.14,4.84.68C8.5,49.6,8.83,49.25,9.2,48.91Z"/><path class="cls-13" d="M73.76,43H72.64l-.06-.54a5.6,5.6,0,0,0,3-3.67h.7v2.76h3.69L79.33,43h-3c0,2.15,0,4.26,0,6.38a1.33,1.33,0,0,0,1.15,1.37,1.52,1.52,0,0,0,1.58-.9l.24-.36.57.43a3.33,3.33,0,0,1-4.44,2c-1.35-.55-1.67-1.72-1.69-3,0-1.76,0-3.52,0-5.27Z"/><path class="cls-8" d="M246.13,41.68V44.5l-.51,0c0-.06-.07-.1-.09-.14a9.15,9.15,0,0,0-.55-1.32,1.67,1.67,0,0,0-1.67-.88,1.13,1.13,0,0,0-.94,1.73,5.11,5.11,0,0,0,1.17,1.15c.7.57,1.5,1,2.17,1.64,1.61,1.45,1.59,3.56-.09,4.68a4.46,4.46,0,0,1-2,.68,26.47,26.47,0,0,1-3.18-.08c0-.41-.09-.93-.15-1.46s-.12-1.05-.18-1.62h.61a9.75,9.75,0,0,0,.5,1.15,2.28,2.28,0,0,0,2.33,1.27,1.28,1.28,0,0,0,1.07-1.9,5.29,5.29,0,0,0-1.1-1.22c-.74-.65-1.55-1.2-2.28-1.86-2-1.74-1.06-4.22,1.23-4.86A6.71,6.71,0,0,1,246.13,41.68Z"/><path class="cls-8" d="M108.28,41.69V44.5h-.52a10.47,10.47,0,0,0-.79-1.57,2.11,2.11,0,0,0-1-.7,1.29,1.29,0,0,0-1.53.59,1.19,1.19,0,0,0,.38,1.54c.89.75,1.86,1.4,2.77,2.12A3.25,3.25,0,0,1,109,48.79,2.89,2.89,0,0,1,106.5,52a12.8,12.8,0,0,1-2.9,0l-1,.23-.34-3.26.56,0a12.16,12.16,0,0,0,.69,1.4,2.21,2.21,0,0,0,2.17,1.06,1.29,1.29,0,0,0,1.06-2,5.82,5.82,0,0,0-1.2-1.28c-.7-.62-1.48-1.17-2.18-1.79a2.59,2.59,0,0,1-1-2.77,3,3,0,0,1,2.35-2.1A6.61,6.61,0,0,1,108.28,41.69Z"/><path class="cls-10" d="M225.45,40.89v8a2.62,2.62,0,0,0,0,.28c.07,1.32.05,1.91,1.8,2v.67H221l0-.68.63,0A1.3,1.3,0,0,0,223,49.73c0-2.11,0-4.22,0-6.36-.51-.6-1.28-.47-2-.68l0-.58Z"/><path class="cls-14" d="M224,38.1c-1,0-1.64-.59-1.59-1.44a1.54,1.54,0,0,1,1.8-1.3c1,.13,1.5.64,1.43,1.53S224.92,38.1,224,38.1Z"/><path class="cls-15" d="M92.59,16a9.84,9.84,0,0,1,.67-4,5.43,5.43,0,0,1,5-3.66,5.19,5.19,0,0,1,5.32,3.35,11,11,0,0,1-.42,10.15,4.83,4.83,0,0,1-4.91,2.67,5.74,5.74,0,0,1-4.67-3.4A10.66,10.66,0,0,1,92.59,16Z"/><path class="cls-1" d="M49.32,49.66V43.74A13.55,13.55,0,0,1,51.25,43a2.39,2.39,0,0,1,2.56,1.19,5.2,5.2,0,0,1,.5,5.15,2.48,2.48,0,0,1-3.59,1.26A13.6,13.6,0,0,1,49.32,49.66Z"/><path class="cls-4" d="M119.33,44a13.12,13.12,0,0,1,4.26,4.37,5.24,5.24,0,0,1-4.37,1.9A2.45,2.45,0,0,1,117.09,48a3.43,3.43,0,0,1,1.13-3Z"/><path class="cls-16" d="M120.53,42.81A3.3,3.3,0,0,1,119,40.07a1.38,1.38,0,0,1,1.08-1.41,1.54,1.54,0,0,1,1.73.89A2.51,2.51,0,0,1,120.53,42.81Z"/><path class="cls-1" d="M203.55,47.51c-.1.56-.15,1.13-.3,1.67a2.56,2.56,0,0,1-2,2,2.76,2.76,0,0,1-2.73-1,6.31,6.31,0,0,1-1.43-4.62,5.11,5.11,0,0,1,.25-1.35,2.64,2.64,0,0,1,4.7-1A6.67,6.67,0,0,1,203.55,47.51Z"/><path class="cls-1" d="M14.11,45.76c.06-.33.12-.85.24-1.34a2.69,2.69,0,0,1,2.1-2.18,2.72,2.72,0,0,1,2.81,1.18,6.26,6.26,0,0,1,1,5.91,2.59,2.59,0,0,1-4.42,1.09C14.55,49.21,14.22,47.62,14.11,45.76Z"/><path class="cls-1" d="M137.66,45.18c.14-1.92,1-3.08,2.28-3.1s2.05,1,2.25,3.1Z"/><path class="cls-1" d="M88.06,45.19H83.47a4.05,4.05,0,0,1,1.07-2.64,1.85,1.85,0,0,1,2.77.29A4.94,4.94,0,0,1,88.06,45.19Z"/><path class="cls-4" d="M156.23,45.19a13.49,13.49,0,0,1,1-2.33,1.82,1.82,0,0,1,3.1.11,14.43,14.43,0,0,1,.79,2.22Z"/><text/><text class="cls-17" transform="translate(248.93 5.15)">®</text></g></g></svg>